<?xml version="1.0" encoding="UTF-8"?>
<svg version="1.1" xmlns="http://www.w3.org/2000/svg" width="1024" height="1024">
<path d="M0 0 C16.58865554 9.69356857 33.26075682 19.24371893 49.95410156 28.75561523 C55.25903647 31.78095711 60.55607163 34.81721247 65.82421875 37.90625 C66.70343994 38.4209082 67.58266113 38.93556641 68.48852539 39.46582031 C70.09315422 40.4074041 71.69539799 41.35307009 73.29467773 42.30371094 C73.99407471 42.71395508 74.69347168 43.12419922 75.4140625 43.546875 C76.01089844 43.90064209 76.60773437 44.25440918 77.22265625 44.61889648 C79.11536213 45.55708213 80.91547438 46.04916756 82.9765625 46.48828125 C82.6465625 46.81828125 82.3165625 47.14828125 81.9765625 47.48828125 C82.45673828 47.74818848 82.93691406 48.0080957 83.43164062 48.27587891 C93.60299694 53.79453343 103.68576471 59.43965054 113.6640625 65.30078125 C121.98683504 70.18929237 130.35729342 74.97770351 138.7890625 79.67578125 C147.68860718 84.63457825 156.53383326 89.67419262 165.33984375 94.796875 C170.18420969 97.61394004 175.04713401 100.39791955 179.9140625 103.17578125 C180.76887207 103.66377197 181.62368164 104.1517627 182.50439453 104.65454102 C185.32824507 106.26614808 188.15239423 107.87723103 190.9765625 109.48828125 C195.07985462 111.82943438 199.18281699 114.17116242 203.2852478 116.51382446 C204.49152224 117.20250163 205.69792187 117.89095957 206.90444946 118.57919312 C212.92240674 122.01203153 218.93441553 125.45381118 224.9140625 128.953125 C225.7994873 129.47060303 226.68491211 129.98808105 227.59716797 130.52124023 C229.22346899 131.47390575 230.84762701 132.43024254 232.46923828 133.39086914 C235.98610885 135.67659295 235.98610885 135.67659295 239.9765625 136.48828125 C240.41613281 136.93558594 240.85570312 137.38289062 241.30859375 137.84375 C243.27659793 139.78410073 245.15474731 140.65445359 247.6640625 141.80078125 C253.17695877 144.4685717 258.1902819 147.66655179 262.51171875 152.04296875 C264.11895223 153.72009109 264.11895223 153.72009109 266.9765625 155.48828125 C269.15464214 158.02342312 271.05229746 160.75737986 272.9765625 163.48828125 C273.64945313 164.42027344 273.64945313 164.42027344 274.3359375 165.37109375 C287.26248397 184.44173946 284.27343143 210.64367746 284.23801184 232.62411022 C284.23344122 236.82860633 284.24049358 241.03308652 284.24597168 245.23757935 C284.25481773 253.44947501 284.25296544 261.66133391 284.2471464 269.87323096 C284.24261217 276.55079258 284.24202458 283.22834396 284.24419403 289.90590668 C284.2445005 290.85970073 284.24480696 291.81349478 284.24512272 292.79619168 C284.24576222 294.73432583 284.24641065 296.67245998 284.2470679 298.61059412 C284.25275684 316.73971639 284.24623527 334.86881836 284.23546717 352.99793729 C284.2265272 368.529885 284.22809016 384.06180282 284.23730469 399.59375 C284.24802282 417.66840695 284.25221369 435.74304618 284.24608016 453.81770587 C284.24544311 455.74711021 284.24481437 457.67651454 284.24419403 459.60591888 C284.24388548 460.55502129 284.24357693 461.50412369 284.24325903 462.48198678 C284.24153714 469.14814416 284.24443611 475.81429023 284.24915314 482.48044586 C284.25477888 490.60872733 284.25320977 498.7369702 284.24259165 506.86524728 C284.23735857 511.00677331 284.23523768 515.14823513 284.24188995 519.28976059 C284.24790048 523.08935471 284.24449129 526.8888258 284.23393485 530.68840894 C284.23068371 532.69532714 284.23712568 534.70225406 284.24404931 536.70916295 C284.16053407 556.27740239 280.73780882 574.75665799 267.02758789 589.50317383 C260.08943569 596.21834054 251.19053401 600.82536406 242.8515625 605.55078125 C241.12329683 606.53878296 239.39503797 607.52679694 237.66729736 608.51571655 C236.49244246 609.18800165 235.31727086 609.85973361 234.14178467 610.53091431 C228.39767393 613.81196269 222.6856181 617.14674305 216.9765625 620.48828125 C205.42983052 627.23624776 193.84753474 633.92167874 182.25878906 640.59716797 C176.82996312 643.72508271 171.40334243 646.85681856 165.9765625 649.98828125 C159.45422975 653.75192044 152.93142488 657.51472747 146.40625 661.2734375 C144.22129814 662.53245485 142.03640216 663.79156919 139.8515625 665.05078125 C138.77463135 665.67138428 137.6977002 666.2919873 136.58813477 666.93139648 C130.34293847 670.53415909 124.11222743 674.1604917 117.8918457 677.8059082 C108.86962463 683.0926028 99.80510389 688.28460593 90.6640625 693.36328125 C81.0681242 698.69603664 71.60058386 704.2167038 62.17300415 709.83911133 C54.98631483 714.12504527 47.77700724 718.34633817 40.46411133 722.4128418 C35.26296969 725.30939298 30.13396345 728.3187684 25.01074219 731.35058594 C18.56989421 735.15536684 12.08718373 738.88545854 5.6015625 742.61328125 C-3.54672941 747.87413445 -12.64314648 753.21499711 -21.7109375 758.61328125 C-25.06367702 760.59992001 -28.41792377 762.58396875 -31.7734375 764.56591797 C-33.91375144 765.83190594 -36.05183669 767.10167058 -38.1875 768.37548828 C-57.6229173 779.93525626 -74.85793188 788.1375974 -97.97265625 783.84765625 C-118.23943798 778.51094883 -136.73211713 764.55946278 -154.46484375 753.83203125 C-159.85899075 750.57436824 -165.30638196 747.4325036 -170.796875 744.33984375 C-173.26101665 742.92579636 -175.69716493 741.48596228 -178.125 740.01171875 C-178.8164209 739.59196777 -179.5078418 739.1722168 -180.22021484 738.73974609 C-181.55893616 737.92377873 -182.89532514 737.10396866 -184.22900391 736.27978516 C-187.39450712 734.17806196 -187.39450712 734.17806196 -191.0234375 733.48828125 C-191.0234375 732.82828125 -191.0234375 732.16828125 -191.0234375 731.48828125 C-192.10625 731.08101807 -192.10625 731.08101807 -193.2109375 730.66552734 C-195.9759478 729.50815932 -198.44450188 728.17621558 -201.0234375 726.65234375 C-201.9834668 726.08805664 -202.94349609 725.52376953 -203.93261719 724.94238281 C-204.95258789 724.3387793 -205.97255859 723.73517578 -207.0234375 723.11328125 C-209.17403355 721.8495018 -211.32508464 720.58649642 -213.4765625 719.32421875 C-214.56388672 718.68581055 -215.65121094 718.04740234 -216.77148438 717.38964844 C-221.75502353 714.47584942 -226.76106021 711.60211651 -231.7734375 708.73828125 C-232.64742187 708.2376416 -233.52140625 707.73700195 -234.421875 707.22119141 C-235.23398437 706.7576123 -236.04609375 706.2940332 -236.8828125 705.81640625 C-237.58889648 705.41325195 -238.29498047 705.01009766 -239.02246094 704.59472656 C-241.99050176 702.9535405 -244.7988208 701.56315348 -248.0234375 700.48828125 C-248.47581787 700.03549805 -248.92819824 699.58271484 -249.39428711 699.11621094 C-251.4293667 697.0826562 -253.58965632 695.86552153 -256.08984375 694.44140625 C-257.11932129 693.85157959 -258.14879883 693.26175293 -259.20947266 692.65405273 C-260.32370605 692.02184814 -261.43793945 691.38964355 -262.5859375 690.73828125 C-263.7559907 690.06960613 -264.925745 689.40040774 -266.09521484 688.73071289 C-268.52698117 687.33874871 -270.96001994 685.94904923 -273.39404297 684.56103516 C-278.98966426 681.36808719 -284.56876065 678.14648438 -290.1484375 674.92578125 C-291.22061523 674.30759521 -292.29279297 673.68940918 -293.39746094 673.05249023 C-301.72759945 668.24639962 -310.03400977 663.40040295 -318.33642578 658.54663086 C-324.71169096 654.82412879 -331.10814816 651.14132249 -337.5234375 647.48828125 C-349.07428042 640.9083696 -360.55188664 634.20524329 -372.0234375 627.48828125 C-373.20213291 626.79847608 -374.38084425 626.10869811 -375.55957031 625.41894531 C-376.77930686 624.70509519 -377.99903331 623.9912278 -379.21875 623.27734375 C-379.82887436 622.9202684 -380.43899872 622.56319305 -381.06761169 622.19529724 C-384.16115072 620.38419775 -387.2533466 618.57086517 -390.34301758 616.75317383 C-391.55807316 616.03851928 -392.77316079 615.32391923 -393.98828125 614.609375 C-394.87955467 614.0852578 -394.87955467 614.0852578 -395.78883362 613.55055237 C-399.64549074 611.28652181 -403.51893225 609.05389848 -407.40234375 606.8359375 C-425.72708815 596.31584233 -425.72708815 596.31584233 -433.0234375 588.48828125 C-433.57386719 587.95589844 -434.12429688 587.42351563 -434.69140625 586.875 C-448.44063408 572.63094135 -449.47319009 553.10621241 -449.47167969 534.52709961 C-449.48234669 532.64577893 -449.49427962 530.76446507 -449.50736237 528.88315964 C-449.53911259 523.77157778 -449.55252923 518.66009604 -449.56237888 513.54843116 C-449.57585986 508.07641537 -449.60561345 502.60448316 -449.63299561 497.13252258 C-449.68305875 486.55270599 -449.71637867 475.97289983 -449.74342322 465.39300185 C-449.76555223 456.87220163 -449.79477479 448.35145087 -449.82836914 439.83068848 C-450.09639318 371.25527907 -450.03735603 302.6869416 -449.36498308 234.11406934 C-449.34314416 231.86988261 -449.32185513 229.62569139 -449.30077744 227.38149738 C-449.28721389 225.9418468 -449.2736451 224.50219626 -449.2600708 223.06254578 C-449.25353194 222.36650665 -449.24699308 221.67046752 -449.24025607 220.9533363 C-449.19604334 216.32047305 -449.14316071 211.68775707 -449.08807373 207.05500793 C-449.06439599 204.73491597 -449.040886 202.41482228 -449.01757812 200.09472656 C-449.00306484 199.04952819 -448.98855156 198.00432981 -448.97359848 196.92745876 C-448.96511005 195.98083402 -448.95662163 195.03420927 -448.94787598 194.05889893 C-448.93828102 193.24213306 -448.92868607 192.4253672 -448.91880035 191.58385086 C-448.93913771 189.29364223 -448.93913771 189.29364223 -450.0234375 186.48828125 C-449.3634375 186.15828125 -448.7034375 185.82828125 -448.0234375 185.48828125 C-447.06109297 183.0392187 -446.18410273 180.60143917 -445.3359375 178.11328125 C-437.83577942 157.29646877 -423.89668579 147.44013585 -405.2578125 136.90234375 C-400.00312963 133.92127244 -394.79871214 130.85431027 -389.5859375 127.80078125 C-381.70666653 123.19062177 -373.79572832 118.64538079 -365.8359375 114.17578125 C-357.07089016 109.25008864 -348.37729625 104.20979572 -339.7109375 99.11328125 C-320.92912663 88.06951473 -302.04587765 77.20599214 -283.11990356 66.41137695 C-274.03455873 61.22788769 -264.98476682 55.9860718 -255.95605469 50.70458984 C-245.42949606 44.54869741 -234.86363034 38.46155147 -224.296875 32.375 C-221.0586859 30.50859745 -217.82204312 28.63954362 -214.5859375 26.76953125 C-199.87707348 18.27137404 -185.13922985 9.82538294 -170.38476562 1.40673828 C-164.59627939 -1.89700408 -158.80991541 -5.20446046 -153.0234375 -8.51171875 C-153.0234375 -9.17171875 -153.0234375 -9.83171875 -153.0234375 -10.51171875 C-151.9550061 -10.67015259 -151.9550061 -10.67015259 -150.86499023 -10.83178711 C-147.69997614 -11.58911714 -145.38502808 -12.78232548 -142.55859375 -14.390625 C-141.51791748 -14.97859863 -140.47724121 -15.56657227 -139.4050293 -16.17236328 C-138.309729 -16.79997559 -137.21442871 -17.42758789 -136.0859375 -18.07421875 C-134.9616333 -18.70956543 -133.8373291 -19.34491211 -132.67895508 -19.99951172 C-127.99150779 -22.6530136 -123.31545274 -25.32198754 -118.6875 -28.078125 C-75.67601932 -53.62869583 -37.09928079 -21.69541412 0 0 Z " fill="#00395C" transform="translate(595.0234375,146.51171875)"/>
<path d="M0 0 C14.7641038 11.29814041 25.28198726 27.5692327 28.1875 46.0859375 C28.47263457 49.71612925 28.52174714 53.320655 28.5 56.9609375 C28.49508545 57.93401855 28.4901709 58.90709961 28.48510742 59.90966797 C28.37371562 66.7199912 27.74361899 72.72109937 25.1875 79.0859375 C24.81238281 80.08753906 24.43726563 81.08914063 24.05078125 82.12109375 C21.89285422 87.61461776 19.54721356 92.53266815 16.0078125 97.26953125 C14.82685792 99.8845021 15.43591353 101.33560229 16.1875 104.0859375 C17.1628131 105.98637904 18.21906453 107.84625221 19.328125 109.671875 C19.97990723 110.75557373 20.63168945 111.83927246 21.30322266 112.95581055 C21.65088684 113.52665375 21.99855103 114.09749695 22.35675049 114.68563843 C24.20390792 117.71988165 26.02652323 120.76882642 27.8515625 123.81640625 C28.2214328 124.43278458 28.5913031 125.0491629 28.97238159 125.68421936 C32.35023806 131.32607329 35.60001252 137.03588573 38.8125 142.7734375 C43.13709134 150.48312851 47.5311058 158.14644944 52 165.7734375 C57.46484914 175.10126429 62.85056291 184.47191333 68.20114136 193.86550903 C72.9369661 202.17767088 77.72496875 210.45743023 82.5625 218.7109375 C86.93287757 226.16971521 91.20790197 233.66870948 95.37402344 241.24316406 C99.32079454 248.38933221 103.4475478 255.42703093 107.57617188 262.46923828 C113.01735067 271.76188931 118.36140481 281.1082592 123.68212891 290.47021484 C127.07487306 296.4298321 130.51638766 302.34097724 134.13867188 308.16455078 C135.1875 310.0859375 135.1875 310.0859375 135.1875 312.0859375 C136.1775 311.7559375 137.1675 311.4259375 138.1875 311.0859375 C159.20613484 309.79735788 177.98434261 313.76481654 194.1875 328.0859375 C207.75639056 340.1854389 217.42030839 357.12195164 218.5078125 375.5078125 C219.1955673 394.90210023 214.10713476 412.84342771 201.3515625 427.83984375 C187.8567616 441.84618042 169.31858139 449.91890559 149.9375 450.3984375 C128.30845667 450.04993328 111.58149784 441.32690671 96.703125 426.0234375 C91.03458024 419.40426722 87.60121563 412.05127396 84.1875 404.0859375 C1.3575 404.0859375 -81.4725 404.0859375 -166.8125 404.0859375 C-169.4525 409.3659375 -172.0925 414.6459375 -174.8125 420.0859375 C-177.77946842 423.76330681 -180.45638234 426.86917421 -183.8125 430.0859375 C-184.47507812 430.77945312 -185.13765625 431.47296875 -185.8203125 432.1875 C-198.10915998 444.28944485 -216.29362564 450.33762838 -233.3125 450.5859375 C-251.99231263 450.31314617 -268.95186974 443.14866915 -282.15625 429.9375 C-289.42622403 422.13296906 -294.34070044 414.17256727 -297.8125 404.0859375 C-298.1321875 403.21066406 -298.451875 402.33539062 -298.78125 401.43359375 C-304.31794273 383.56750655 -301.39433336 364.21023591 -293.06396484 347.88110352 C-283.8020445 330.56561161 -268.5781394 318.34485682 -249.83984375 312.55859375 C-243.89914395 311.17357511 -238.25763974 310.93292147 -232.1875 310.9609375 C-231.341875 310.95707031 -230.49625 310.95320313 -229.625 310.94921875 C-228.39910156 310.95115234 -228.39910156 310.95115234 -227.1484375 310.953125 C-226.41157715 310.95425293 -225.6747168 310.95538086 -224.91552734 310.95654297 C-222.77050994 311.08852105 -220.87566872 311.49920751 -218.8125 312.0859375 C-218.585625 311.44140625 -218.35875 310.796875 -218.125 310.1328125 C-216.34498212 306.00062814 -214.08957325 302.21141615 -211.8125 298.3359375 C-211.31975586 297.4910376 -210.82701172 296.6461377 -210.31933594 295.77563477 C-206.84815953 289.83021539 -203.34930779 283.90104805 -199.85205078 277.97094727 C-190.33004093 261.79675044 -181.03592904 245.48909791 -171.73751831 229.18569946 C-166.55549657 220.10296891 -161.31498884 211.05588567 -156.03540039 202.02954102 C-147.18368326 186.89198584 -138.43300731 171.69584042 -129.75 156.4609375 C-125.46009889 148.93534103 -121.11905843 141.44084614 -116.75 133.9609375 C-115.87456543 132.4617981 -115.87456543 132.4617981 -114.98144531 130.93237305 C-112.70160664 127.02931217 -110.42132351 123.1265142 -108.13867188 119.22509766 C-106.5897996 116.57607875 -105.04448631 113.92501529 -103.5 111.2734375 C-103.03779053 110.48501465 -102.57558105 109.6965918 -102.09936523 108.88427734 C-101.67856689 108.16062988 -101.25776855 107.43698242 -100.82421875 106.69140625 C-100.45772217 106.06387451 -100.09122559 105.43634277 -99.71362305 104.78979492 C-98.6676846 102.92479675 -98.6676846 102.92479675 -97.8125 100.0859375 C-99.34726851 97.19932648 -99.34726851 97.19932648 -101.5 94.0859375 C-111.39724059 78.6990561 -114.51092955 59.92480921 -110.73388672 41.97412109 C-106.54399212 24.54229926 -96.52388251 7.644659 -81.04541016 -2.01708984 C-54.89328137 -17.09839709 -25.15011489 -17.11605041 0 0 Z " fill="#FDAC09" transform="translate(553.8125,259.9140625)"/>
<path d="M0 0 C2.98095703 -0.34057617 2.98095703 -0.34057617 6.7578125 -0.29296875 C7.42086395 -0.28872391 8.08391541 -0.28447906 8.76705933 -0.28010559 C10.88678441 -0.26329971 13.00556188 -0.22564701 15.125 -0.1875 C16.56118419 -0.17245549 17.99738328 -0.15876668 19.43359375 -0.14648438 C22.95603764 -0.1133909 26.47792636 -0.0615968 30 0 C30.92619141 1.68802734 30.92619141 1.68802734 31.87109375 3.41015625 C36.18191189 11.2362928 40.55184664 18.99940155 45.19458008 26.63378906 C49.11929699 33.12745708 52.86913898 39.72021381 56.625 46.3125 C57.31965718 47.5314152 58.01431866 48.75032794 58.70898438 49.96923828 C59.05546021 50.57719238 59.40193604 51.18514648 59.75891113 51.81152344 C60.10659546 52.42157227 60.45427979 53.03162109 60.8125 53.66015625 C61.16179565 54.27310547 61.51109131 54.88605469 61.87097168 55.51757812 C72.45617306 74.08363669 83.21568435 92.5491381 94 111 C101.22167551 123.35554873 108.42329726 135.72157364 115.5625 148.125 C120.18419859 156.1520982 124.84172523 164.15576059 129.5625 172.125 C130.07981689 173.00043457 130.59713379 173.87586914 131.13012695 174.77783203 C133.38116557 178.58567348 135.63554622 182.39123999 137.90771484 186.18652344 C139.8632226 189.45294029 141.80713343 192.72605257 143.75 196 C144.3591626 197.00949707 144.9683252 198.01899414 145.59594727 199.05908203 C146.15725342 200.00895996 146.71855957 200.95883789 147.296875 201.9375 C148.04469238 203.18853516 148.04469238 203.18853516 148.80761719 204.46484375 C150.9170876 208.9498439 151.27884087 211.95866006 149.98274994 216.7989521 C148.06830138 221.19935398 145.84776649 225.04251906 142 228 C134.40700911 230.88729451 125.69267448 230.04947543 117.71289062 229.94091797 C115.21382416 229.9612546 112.71480267 229.9879687 110.21586609 230.02056885 C104.14273375 230.08180127 98.07345742 230.07294368 92.00047719 230.02937923 C87.06346623 229.99543649 82.12723406 229.9909365 77.19013977 230.00723648 C76.13429097 230.01068422 76.13429097 230.01068422 75.05711189 230.01420162 C73.62694205 230.01899773 72.19677244 230.02386093 70.76660305 230.02879049 C57.37024463 230.07151692 43.97542831 230.02246191 30.57932287 229.94178499 C19.09621813 229.87476879 7.61538793 229.88641062 -3.86767578 229.95556641 C-17.21744212 230.03592716 -30.56585855 230.06739759 -43.915833 230.02138245 C-45.34060171 230.01660445 -46.76537064 230.01188889 -48.19013977 230.00723648 C-49.24153 230.00376528 -49.24153 230.00376528 -50.31416044 230.00022396 C-55.24262341 229.98729752 -60.17022673 230.00907647 -65.09855652 230.04442978 C-71.73840694 230.09101582 -78.37463746 230.0576344 -85.01430321 229.97101593 C-87.4486447 229.95120601 -89.88334808 229.95684094 -92.31754494 229.9899559 C-110.13203736 230.209936 -110.13203736 230.209936 -114.92497063 226.5166955 C-118.55473121 222.50417884 -120.7010459 218.22819247 -122 213 C-121.26967621 210.18963432 -121.26967621 210.18963432 -120 208 C-119.51893799 207.10063721 -119.03787598 206.20127441 -118.54223633 205.2746582 C-117.69568481 203.80258911 -117.69568481 203.80258911 -116.83203125 202.30078125 C-116.19394531 201.18767578 -115.55585938 200.07457031 -114.8984375 198.92773438 C-114.20319565 197.72261549 -113.5078812 196.51753848 -112.8125 195.3125 C-112.08957516 194.05419073 -111.36692315 192.79572468 -110.64453125 191.53710938 C-108.43425107 187.68877028 -106.21773404 183.84404707 -104 180 C-103.35208496 178.8764209 -102.70416992 177.7528418 -102.03662109 176.59521484 C-99.57450246 172.32655607 -97.11176284 168.05826273 -94.64550781 163.79199219 C-91.43578495 158.23663809 -88.23888046 152.67436779 -85.06640625 147.09765625 C-77.8281136 134.37715892 -70.49693378 121.72500229 -63.00463867 109.15136719 C-57.51583546 99.91992362 -52.17283094 90.61146219 -46.86376953 81.27612305 C-42.58611642 73.75721888 -38.25247809 66.27370511 -33.875 58.8125 C-28.48809232 49.62257462 -23.2502199 40.35647347 -18.06494141 31.05151367 C-14.34361543 24.37968514 -10.57832222 17.73604314 -6.75 11.125 C-6.2960083 10.34020264 -5.8420166 9.55540527 -5.37426758 8.74682617 C-3.64601098 5.77299726 -1.90915298 2.86372947 0 0 Z " fill="#00375B" transform="translate(497,387)"/>
<path d="M0 0 C0.33 0 0.66 0 1 0 C1 74.58 1 149.16 1 226 C1.66 226 2.32 226 3 226 C3 221.38 3 216.76 3 212 C3.33 212 3.66 212 4 212 C4 223.55 4 235.1 4 247 C3.34 246.34 2.68 245.68 2 245 C1.67 279.98 1.34 314.96 1 351 C0.67 351 0.34 351 0 351 C0 235.17 0 119.34 0 0 Z " fill="#004367" transform="translate(875,342)"/>
<path d="M0 0 C0.99 1.485 0.99 1.485 2 3 C-0.32212385 4.16106193 -1.6286907 4.11888758 -4.21290779 4.10743046 C-5.10167236 4.10593811 -5.99043694 4.10444576 -6.90613377 4.10290819 C-7.88860896 4.0961044 -8.87108414 4.08930061 -9.8833313 4.08229065 C-10.92226245 4.07906152 -11.9611936 4.07583239 -13.03160751 4.07250541 C-16.5355937 4.0603789 -20.03950347 4.04101681 -23.54345703 4.02172852 C-26.04618155 4.01159117 -28.5489079 4.00189691 -31.05163574 3.99261475 C-36.45151674 3.97158537 -41.85136992 3.94745531 -47.25122452 3.92053413 C-55.0585657 3.88161565 -62.86592278 3.84824403 -70.67329501 3.81623887 C-83.33934445 3.76416509 -96.00536964 3.70758718 -108.67138672 3.64819336 C-120.97736669 3.59049744 -133.2833532 3.53491249 -145.58935547 3.48217773 C-146.3475269 3.47892802 -147.10569833 3.4756783 -147.88684465 3.4723301 C-151.69025733 3.45604075 -155.49367019 3.43979302 -159.29708314 3.42356598 C-190.86475225 3.28883053 -222.4323842 3.14671756 -254 3 C-254 2.67 -254 2.34 -254 2 C-170.18 2 -86.36 2 0 2 C0 1.34 0 0.68 0 0 Z " fill="#C8AA11" transform="translate(639,613)"/>
<path d="M0 0 C3.39002721 1.29108191 6.52160831 2.75781541 9.67578125 4.546875 C10.57425781 5.05508789 11.47273437 5.56330078 12.3984375 6.08691406 C13.84089844 6.9101416 13.84089844 6.9101416 15.3125 7.75 C16.31925781 8.32202148 17.32601563 8.89404297 18.36328125 9.48339844 C34.69391757 18.78559567 50.92504548 28.26228716 67 38 C65.33203125 38.67749023 65.33203125 38.67749023 63 39 C60.51171875 37.89868164 60.51171875 37.89868164 57.6875 36.16015625 C56.62499023 35.5165918 55.56248047 34.87302734 54.46777344 34.20996094 C53.90312378 33.86026245 53.33847412 33.51056396 52.75671387 33.15026855 C49.75361278 31.29072899 46.72618254 29.47137485 43.703125 27.64453125 C42.762341 27.07344131 42.762341 27.07344131 41.80255127 26.49081421 C34.85750933 22.28353273 27.80982774 18.26063364 20.75 14.25 C19.56765823 13.57699231 18.38536533 12.90389876 17.203125 12.23071289 C16.0996875 11.60285889 14.99625 10.97500488 13.859375 10.328125 C12.83779297 9.74482422 11.81621094 9.16152344 10.76367188 8.56054688 C9.08247934 7.61123745 7.39297076 6.67621687 5.68945312 5.76757812 C1.10113098 3.30339293 1.10113098 3.30339293 0 0 Z " fill="#03304D" transform="translate(241,782)"/>
<path d="M0 0 C3.66095826 1.38289079 7.01704575 3.02896063 10.4296875 4.94140625 C11.98441772 5.81128174 11.98441772 5.81128174 13.57055664 6.69873047 C14.66102295 7.31377441 15.75148926 7.92881836 16.875 8.5625 C18.54453735 9.50053467 18.54453735 9.50053467 20.24780273 10.45751953 C28.58795058 15.16091521 36.84289607 19.98636539 45 25 C42.54605513 25.89889105 41.39261934 26.15352748 38.91967773 25.18652344 C38.18177002 24.74856445 37.4438623 24.31060547 36.68359375 23.859375 C35.84538086 23.37073975 35.00716797 22.88210449 34.14355469 22.37866211 C33.25055664 21.84120361 32.35755859 21.30374512 31.4375 20.75 C29.55609403 19.64174974 27.67458111 18.53368104 25.79296875 17.42578125 C24.83567871 16.85682129 23.87838867 16.28786133 22.89208984 15.70166016 C20.08806376 14.05181533 17.26373438 12.446114 14.42578125 10.85546875 C13.55445557 10.36401367 12.68312988 9.87255859 11.78540039 9.36621094 C10.11978381 8.42762758 8.45107637 7.49450431 6.77905273 6.56738281 C5.65865601 5.92881348 5.65865601 5.92881348 4.515625 5.27734375 C3.85852539 4.90859131 3.20142578 4.53983887 2.52441406 4.15991211 C1 3 1 3 0 0 Z " fill="#032E4B" transform="translate(353,847)"/>
<path d="M0 0 C4.25378857 0.47264317 6.08913163 0.96172612 9 4 C10.21730522 4.80907998 11.46352128 5.57579347 12.73046875 6.3046875 C13.45169922 6.72363281 14.17292969 7.14257812 14.91601562 7.57421875 C15.66560547 8.00347656 16.41519531 8.43273437 17.1875 8.875 C22.8595272 12.1490563 28.46921512 15.49157535 34 19 C32.20532227 19.60375977 32.20532227 19.60375977 30 20 C27.50438452 18.73883879 25.27092453 17.45060298 22.9375 15.9375 C21.60149214 15.09959534 20.26424059 14.26367059 18.92578125 13.4296875 C18.26529785 13.01557617 17.60481445 12.60146484 16.92431641 12.17480469 C13.37015999 10.00497461 9.67284481 8.10496833 5.9765625 6.19140625 C4 5 4 5 3 3 C2.34 3 1.68 3 1 3 C0.67 2.01 0.34 1.02 0 0 Z " fill="#032F4C" transform="translate(401,875)"/>
<path d="M0 0 C-3.85386194 2.25052225 -7.70814411 4.50032384 -11.5625 6.75 C-12.64853516 7.38421875 -13.73457031 8.0184375 -14.85351562 8.671875 C-16.96087835 9.9017037 -19.06971765 11.12900644 -21.18017578 12.35351562 C-22.88464607 13.34874919 -24.58296621 14.35477264 -26.26904297 15.38085938 C-27.81296164 16.31113342 -29.40159642 17.16681295 -31 18 C-31.66 17.67 -32.32 17.34 -33 17 C-28 12 -28 12 -25 11 C-23.40239972 10.10806105 -21.82230774 9.18452422 -20.25390625 8.2421875 C-18.87428711 7.42814453 -18.87428711 7.42814453 -17.46679688 6.59765625 C-15.53004618 5.44889087 -13.59772822 4.2926192 -11.66992188 3.12890625 C-10.74888672 2.58878906 -9.82785156 2.04867187 -8.87890625 1.4921875 C-8.0391626 0.99058105 -7.19941895 0.48897461 -6.33422852 -0.02783203 C-3.68966003 -1.12925152 -2.62725087 -1.01639001 0 0 Z " fill="#04314D" transform="translate(470,125)"/>
<path d="M0 0 C2 0 2 0 4.3125 2.25 C5.6428125 3.61125 5.6428125 3.61125 7 5 C11.41448356 8.83580594 16.3180647 11.74624333 21.3125 14.75 C22.56643555 15.50990234 22.56643555 15.50990234 23.84570312 16.28515625 C25.89525307 17.52659793 27.94670213 18.76477067 30 20 C27.60818736 20.85799092 26.42804405 21.16635012 24.02050781 20.23071289 C23.33827148 19.8155542 22.65603516 19.40039551 21.953125 18.97265625 C21.19370605 18.51366943 20.43428711 18.05468262 19.65185547 17.58178711 C18.46293701 16.82973999 18.46293701 16.82973999 17.25 16.0625 C16.44320801 15.56049072 15.63641602 15.05848145 14.80517578 14.54125977 C9.30035167 11.03387488 3.85515674 7.37834804 0 2 C0 1.34 0 0.68 0 0 Z " fill="#032D48" transform="translate(161,732)"/>
<path d="M0 0 C2.64 0.33 5.28 0.66 8 1 C8 1.33 8 1.66 8 2 C11.49998201 2.02934711 14.99993179 2.04691445 18.5 2.0625 C19.97339844 2.07506836 19.97339844 2.07506836 21.4765625 2.08789062 C27.08674757 2.10659124 32.45150899 1.838879 38 1 C33.27409363 5.72590637 24.851101 5.16016284 18.5625 5.25 C12.19517986 5.17234975 6.19644209 4.44283059 0 3 C0 2.01 0 1.02 0 0 Z " fill="#F4D904" transform="translate(685,705)"/>
<path d="M0 0 C-1.38822513 3.39782917 -2.69329346 4.73250217 -5.921875 6.4375 C-6.70046875 6.85773437 -7.4790625 7.27796875 -8.28125 7.7109375 C-9.0959375 8.13632812 -9.910625 8.56171875 -10.75 9 C-12.35024932 9.8517456 -13.94923475 10.70587052 -15.546875 11.5625 C-16.31193359 11.96855469 -17.07699219 12.37460937 -17.86523438 12.79296875 C-19.79521576 13.88421166 -21.54172839 15.06722286 -23.328125 16.375 C-26 18 -26 18 -28.16699219 17.6015625 C-28.77188477 17.40304687 -29.37677734 17.20453125 -30 17 C-29.36497559 16.62713867 -28.72995117 16.25427734 -28.07568359 15.87011719 C-25.17439031 14.16521714 -22.27468542 12.45763315 -19.375 10.75 C-18.37597656 10.16347656 -17.37695312 9.57695313 -16.34765625 8.97265625 C-10.29205131 5.41607463 -10.29205131 5.41607463 -4.4140625 1.578125 C-2 0 -2 0 0 0 Z " fill="#032E49" transform="translate(849,743)"/>
<path d="M0 0 C3.82122393 1.42114154 7.22622205 3.19189532 10.73828125 5.2578125 C11.80498047 5.88300781 12.87167969 6.50820313 13.97070312 7.15234375 C15.07349609 7.80332031 16.17628906 8.45429687 17.3125 9.125 C18.43462891 9.78371094 19.55675781 10.44242188 20.71289062 11.12109375 C23.47708656 12.7443237 26.23936632 14.37072154 29 16 C27.3503418 16.67871094 27.3503418 16.67871094 25 17 C22.35864258 15.87597656 22.35864258 15.87597656 19.39453125 14.140625 C18.32912109 13.51929688 17.26371094 12.89796875 16.16601562 12.2578125 C14.50602539 11.26394531 14.50602539 11.26394531 12.8125 10.25 C11.69423828 9.60289062 10.57597656 8.95578125 9.42382812 8.2890625 C1.13180272 3.39540816 1.13180272 3.39540816 0 0 Z " fill="#032E4B" transform="translate(193,754)"/>
<path d="M0 0 C6.3304402 2.42087164 9.18583574 9.44779026 12.1171875 15.1875 C14.20439029 20.1172742 14.33129966 24.6992054 14 30 C13.67 30 13.34 30 13 30 C12.76925781 29.17757813 12.53851562 28.35515625 12.30078125 27.5078125 C9.52872013 18.01925547 6.42890965 9.61944848 0 2 C0 1.34 0 0.68 0 0 Z " fill="#042943" transform="translate(862,305)"/>
<path d="M0 0 C5.48608468 0.49332234 9.12657297 2.52385669 13.6875 5.375 C14.68233398 5.97441406 14.68233398 5.97441406 15.69726562 6.5859375 C18.82486265 8.50092138 21.46446891 10.32480593 24 13 C23.01 13.495 23.01 13.495 22 14 C20.27587891 13.21142578 20.27587891 13.21142578 18.2265625 11.9453125 C17.4840625 11.49542969 16.7415625 11.04554688 15.9765625 10.58203125 C15.20054687 10.10121094 14.42453125 9.62039062 13.625 9.125 C12.0992051 8.18545851 10.5706443 7.25039072 9.0390625 6.3203125 C8.36053223 5.90023926 7.68200195 5.48016602 6.98291016 5.04736328 C5.03615042 3.90228572 5.03615042 3.90228572 2.81005859 3.54248047 C2.21273926 3.36346191 1.61541992 3.18444336 1 3 C0.67 2.01 0.34 1.02 0 0 Z " fill="#033351" transform="translate(742,233)"/>
<path d="M0 0 C4.50046981 1.69978605 8.7641271 3.79028347 13.0625 5.9375 C13.76955078 6.28490234 14.47660156 6.63230469 15.20507812 6.99023438 C18.72025463 8.74287168 21.95683867 10.47852347 25 13 C18.5087097 12.57649625 14.13495328 10.90719056 8.5625 7.625 C7.84384766 7.22539063 7.12519531 6.82578125 6.38476562 6.4140625 C1.13295239 3.39885717 1.13295239 3.39885717 0 0 Z " fill="#032D49" transform="translate(468,914)"/>
<path d="M0 0 C0.66 0.99 1.32 1.98 2 3 C-0.41791404 4.20895702 -1.84496725 4.08661844 -4.54150391 4.02172852 C-5.95274033 3.99158409 -5.95274033 3.99158409 -7.39248657 3.96083069 C-8.41023163 3.93379562 -9.42797668 3.90676056 -10.4765625 3.87890625 C-11.51694672 3.85529526 -12.55733093 3.83168427 -13.62924194 3.80735779 C-16.96129644 3.73061424 -20.29312475 3.64663584 -23.625 3.5625 C-25.88019716 3.50929003 -28.13540545 3.45654956 -30.390625 3.40429688 C-35.92722413 3.27498468 -41.46365447 3.13972768 -47 3 C-47 2.67 -47 2.34 -47 2 C-31.49 2 -15.98 2 0 2 C0 1.34 0 0.68 0 0 Z " fill="#CBAB11" transform="translate(639,613)"/>
<path d="M0 0 C0.66 0.33 1.32 0.66 2 1 C-1.22053644 4.56674411 -4.86462387 6.94633813 -9 9.3125 C-9.61617187 9.68439453 -10.23234375 10.05628906 -10.8671875 10.43945312 C-15.47773611 13.09596021 -15.47773611 13.09596021 -18.20703125 12.59448242 C-18.79871094 12.39830322 -19.39039063 12.20212402 -20 12 C-16.71619398 9.96617319 -13.42178728 7.95020438 -10.125 5.9375 C-9.18785156 5.35677734 -8.25070312 4.77605469 -7.28515625 4.17773438 C-6.38925781 3.63310547 -5.49335937 3.08847656 -4.5703125 2.52734375 C-3.74289551 2.01937256 -2.91547852 1.51140137 -2.06298828 0.98803711 C-1.04180908 0.49895874 -1.04180908 0.49895874 0 0 Z " fill="#022E4A" transform="translate(607,882)"/>
<path d="M0 0 C4.63780546 0.58415107 8.26658822 2.5692492 12.25 4.875 C12.88679687 5.22691406 13.52359375 5.57882812 14.1796875 5.94140625 C18.87653374 8.62960123 18.87653374 8.62960123 20 12 C15.08558588 10.56347895 10.99761642 8.45840385 6.625 5.875 C5.98433594 5.50246094 5.34367188 5.12992187 4.68359375 4.74609375 C3.11951523 3.83565998 1.55934466 2.91851809 0 2 C0 1.34 0 0.68 0 0 Z " fill="#02314F" transform="translate(781,255)"/>
<path d="M0 0 C0 0.66 0 1.32 0 2 C-2.38785796 3.67209457 -4.75373728 5.19481795 -7.25 6.6875 C-7.93191406 7.11611328 -8.61382813 7.54472656 -9.31640625 7.98632812 C-9.98027344 8.38658203 -10.64414062 8.78683594 -11.328125 9.19921875 C-12.23933105 9.75355591 -12.23933105 9.75355591 -13.16894531 10.3190918 C-15.47381856 11.17619733 -16.7150952 10.79051657 -19 10 C-16.21251481 8.32626249 -13.41935573 6.66223733 -10.625 5 C-9.8309375 4.52304687 -9.036875 4.04609375 -8.21875 3.5546875 C-7.45820312 3.10351562 -6.69765625 2.65234375 -5.9140625 2.1875 C-4.8614624 1.55908203 -4.8614624 1.55908203 -3.78759766 0.91796875 C-2 0 -2 0 0 0 Z " fill="#032E49" transform="translate(570,905)"/>
<path d="M0 0 C4.2042578 0.52553222 7.43993622 2.1082931 11.1328125 4.0625 C13.1406578 5.12637293 13.1406578 5.12637293 16 6 C15.67 6.33 15.34 6.66 15 7 C15.66 7.33 16.32 7.66 17 8 C17 8.66 17 9.32 17 10 C13.25912846 8.58010715 9.76931806 6.90233408 6.25 5 C5.28578125 4.484375 4.3215625 3.96875 3.328125 3.4375 C1 2 1 2 0 0 Z " fill="#022F4C" transform="translate(662,187)"/>
<path d="M0 0 C0 0.66 0 1.32 0 2 C-2.24179377 3.36965208 -4.49172338 4.72052808 -6.75 6.0625 C-7.38421875 6.45244141 -8.0184375 6.84238281 -8.671875 7.24414062 C-13.50498766 10.08862881 -13.50498766 10.08862881 -16.21582031 9.60327148 C-16.80459961 9.40419189 -17.39337891 9.2051123 -18 9 C-15.56721456 7.49185257 -13.12933973 5.99335653 -10.6875 4.5 C-9.99720703 4.07074219 -9.30691406 3.64148438 -8.59570312 3.19921875 C-7.92861328 2.79316406 -7.26152344 2.38710938 -6.57421875 1.96875 C-5.96151123 1.59169922 -5.34880371 1.21464844 -4.7175293 0.82617188 C-3 0 -3 0 0 0 Z " fill="#022C47" transform="translate(797,774)"/>
<path d="M0 0 C-1.34313221 4.02939664 -3.19038843 4.63016687 -6.8125 6.75 C-7.87082031 7.38421875 -8.92914062 8.0184375 -10.01953125 8.671875 C-13.23740866 10.10579154 -13.83172274 10.01842053 -17 9 C-14.54481265 7.49462965 -12.0861548 5.99555574 -9.625 4.5 C-8.92632813 4.07074219 -8.22765625 3.64148438 -7.5078125 3.19921875 C-2.2265625 0 -2.2265625 0 0 0 Z " fill="#032E4A" transform="translate(666,849)"/>
<path d="M0 0 C4.04301175 1.48518799 7.61146256 3.42877998 11.3125 5.625 C12.38113281 6.25664063 13.44976562 6.88828125 14.55078125 7.5390625 C15.76314453 8.26222656 15.76314453 8.26222656 17 9 C15.38671875 9.703125 15.38671875 9.703125 13 10 C10.01953125 8.671875 10.01953125 8.671875 6.8125 6.75 C5.74644531 6.12609375 4.68039062 5.5021875 3.58203125 4.859375 C1 3 1 3 0 0 Z " fill="#032E4B" transform="translate(331,834)"/>
<path d="M0 0 C-2.45267635 1.53068488 -4.91133894 3.04968623 -7.375 4.5625 C-8.07367188 5.00013672 -8.77234375 5.43777344 -9.4921875 5.88867188 C-11.29185903 6.98750978 -13.14322343 8.00067867 -15 9 C-15.66 8.67 -16.32 8.34 -17 8 C-12.78507282 3.052042 -6.5944213 -1.96085429 0 0 Z " fill="#02304C" transform="translate(248,253)"/>
<path d="M0 0 C4.34863652 0.56444825 7.17827655 2.15427964 10.8125 4.5625 C12.27623047 5.52349609 12.27623047 5.52349609 13.76953125 6.50390625 C14.50558594 6.99761719 15.24164063 7.49132812 16 8 C14.390625 8.70703125 14.390625 8.70703125 12 9 C8.984375 7.63671875 8.984375 7.63671875 5.75 5.6875 C4.67234375 5.05199219 3.5946875 4.41648437 2.484375 3.76171875 C1.66453125 3.18035156 0.8446875 2.59898437 0 2 C0 1.34 0 0.68 0 0 Z " fill="#022E4B" transform="translate(448,903)"/>
<path d="M0 0 C-0.67546875 0.39832031 -1.3509375 0.79664063 -2.046875 1.20703125 C-3.38492188 2.00173828 -3.38492188 2.00173828 -4.75 2.8125 C-5.63171875 3.33457031 -6.5134375 3.85664063 -7.421875 4.39453125 C-9.71972797 5.82546696 -11.86506946 7.33894423 -14 9 C-14.66 8.67 -15.32 8.34 -16 8 C-6.62134299 -2.23126219 -6.62134299 -2.23126219 0 0 Z " fill="#02304C" transform="translate(186,289)"/>
<path d="M0 0 C0.66 0.33 1.32 0.66 2 1 C-2.75 5 -2.75 5 -5 5 C-5.33 5.99 -5.66 6.98 -6 8 C-7.9609375 8.984375 -7.9609375 8.984375 -10.375 9.75 C-11.16648437 10.01296875 -11.95796875 10.2759375 -12.7734375 10.546875 C-15 11 -15 11 -18 10 C-17.49025635 9.7326001 -16.9805127 9.4652002 -16.45532227 9.18969727 C-14.15670784 7.9825377 -11.85958995 6.77255777 -9.5625 5.5625 C-8.76005859 5.14162109 -7.95761719 4.72074219 -7.13085938 4.28710938 C-6.36708984 3.88427734 -5.60332031 3.48144531 -4.81640625 3.06640625 C-4.10943604 2.69459229 -3.40246582 2.32277832 -2.67407227 1.93969727 C-1.02071254 1.11087599 -1.02071254 1.11087599 0 0 Z " fill="#0C1C63" transform="translate(362,696)"/>
<path d="M0 0 C-2.94050157 2.27034075 -5.96058433 4.30412051 -9.125 6.25 C-10.42824219 7.06210938 -10.42824219 7.06210938 -11.7578125 7.890625 C-12.49773437 8.25671875 -13.23765625 8.6228125 -14 9 C-14.66 8.67 -15.32 8.34 -16 8 C-11.77369526 3.26653869 -6.66454099 -0.80782315 0 0 Z " fill="#03304D" transform="translate(304,220)"/>
<path d="M0 0 C2.2975105 2.2975105 3.51819771 4.58035104 5.0625 7.4375 C5.58972656 8.40558594 6.11695313 9.37367188 6.66015625 10.37109375 C8 13 8 13 9 16 C5.43689834 14.57628203 4.0724537 13.03428998 2.25 9.6875 C1.82203125 8.92824219 1.3940625 8.16898438 0.953125 7.38671875 C-0.09933613 4.75125256 -0.17914601 2.81159711 0 0 Z " fill="#032943" transform="translate(151,714)"/>
<path d="M0 0 C0.33 0.66 0.66 1.32 1 2 C0.02616054 3.68208635 -0.97695052 5.34738161 -2 7 C-2.35169068 8.32860925 -2.68770276 9.66158328 -3 11 C-3.99 12.485 -3.99 12.485 -5 14 C-5.66 14 -6.32 14 -7 14 C-7.33 15.32 -7.66 16.64 -8 18 C-8.66 17.67 -9.32 17.34 -10 17 C-6.7 11.39 -3.4 5.78 0 0 Z " fill="#0A1B62" transform="translate(464,445)"/>
<path d="M0 0 C0 0.66 0 1.32 0 2 C-1.72156096 3.01303762 -3.45261806 4.00994848 -5.1875 5 C-6.63189453 5.8353125 -6.63189453 5.8353125 -8.10546875 6.6875 C-11.04888743 8.02216758 -12.81880057 8.27915461 -16 8 C-13.25214237 5.86555934 -10.46859452 4.02037559 -7.4375 2.3125 C-6.29087891 1.65701172 -6.29087891 1.65701172 -5.12109375 0.98828125 C-3 0 -3 0 0 0 Z " fill="#03304C" transform="translate(550,917)"/>
<path d="M0 0 C3.66579598 0.58496744 6.50499144 1.57826707 9.75 3.375 C10.52859375 3.79523438 11.3071875 4.21546875 12.109375 4.6484375 C14 6 14 6 15 9 C11.32305352 7.62859834 8.04681411 5.96304199 4.6875 3.9375 C3.80449219 3.41027344 2.92148437 2.88304687 2.01171875 2.33984375 C1.34785156 1.89769531 0.68398438 1.45554688 0 1 C0 0.67 0 0.34 0 0 Z " fill="#022E4B" transform="translate(646,178)"/>
<path d="M0 0 C0 3.88291746 -1.37860494 5.46752535 -3.5 8.6875 C-4.1496875 9.68136719 -4.799375 10.67523438 -5.46875 11.69921875 C-6.22671875 12.83810547 -6.22671875 12.83810547 -7 14 C-7.67578125 12.29296875 -7.67578125 12.29296875 -8 10 C-6.85546875 7.67578125 -6.85546875 7.67578125 -5.1875 5.3125 C-4.64480469 4.52488281 -4.10210937 3.73726563 -3.54296875 2.92578125 C-2 1 -2 1 0 0 Z " fill="#032C47" transform="translate(161,306)"/>
<path d="M0 0 C0 0.66 0 1.32 0 2 C-2.5546875 3.7265625 -2.5546875 3.7265625 -5.875 5.625 C-6.96554687 6.25664063 -8.05609375 6.88828125 -9.1796875 7.5390625 C-12 9 -12 9 -14 9 C-12.68786941 5.06360824 -11.17198478 4.71346403 -7.5625 2.8125 C-6.07943359 2.01779297 -6.07943359 2.01779297 -4.56640625 1.20703125 C-2 0 -2 0 0 0 Z " fill="#022E49" transform="translate(736,809)"/>
<path d="M0 0 C3.68646141 1.45855647 5.16143971 3.30229045 7.25 6.625 C8.03117188 7.85089844 8.03117188 7.85089844 8.828125 9.1015625 C9.21484375 9.72804688 9.6015625 10.35453125 10 11 C9.67 11.66 9.34 12.32 9 13 C5.48026899 9.74098981 2.47239725 6.1139069 0 2 C0 1.34 0 0.68 0 0 Z " fill="#03314D" transform="translate(862,305)"/>
<path d="M0 0 C4.97209562 1.76429199 9.43438061 4.3939166 14 7 C11.40927388 7.97226335 10.30300917 8.11611108 7.67578125 7.109375 C6.89589844 6.66078125 6.11601562 6.2121875 5.3125 5.75 C4.52488281 5.31171875 3.73726563 4.8734375 2.92578125 4.421875 C1 3 1 3 0 0 Z " fill="#032D48" transform="translate(310,822)"/>
<path d="M0 0 C0 0.66 0 1.32 0 2 C-2.046875 3.54296875 -2.046875 3.54296875 -4.75 5.1875 C-5.63171875 5.73792969 -6.5134375 6.28835938 -7.421875 6.85546875 C-10 8 -10 8 -12.328125 7.67578125 C-12.87984375 7.45277344 -13.4315625 7.22976563 -14 7 C-12.04480616 5.82807953 -10.0857461 4.6626071 -8.125 3.5 C-7.03445313 2.8503125 -5.94390625 2.200625 -4.8203125 1.53125 C-2 0 -2 0 0 0 Z " fill="#022B47" transform="translate(682,840)"/>
<path d="M0 0 C0.66 0.33 1.32 0.66 2 1 C-0.80472516 4.29967665 -4.16918209 6.08459104 -8 8 C-8.99 7.67 -9.98 7.34 -11 7 C-9.21475351 5.80286983 -7.4215972 4.61752721 -5.625 3.4375 C-4.62726562 2.77621094 -3.62953125 2.11492188 -2.6015625 1.43359375 C-1.74304688 0.96050781 -0.88453125 0.48742187 0 0 Z " fill="#022944" transform="translate(583,896)"/>
<path d="M0 0 C0.66 0 1.32 0 2 0 C2.69670416 1.78810766 3.38211189 3.58062052 4.0625 5.375 C4.63677734 6.87160156 4.63677734 6.87160156 5.22265625 8.3984375 C6 11 6 11 5 13 C3.96679519 11.40377344 2.94877571 9.79770894 1.9375 8.1875 C1.36902344 7.29417969 0.80054688 6.40085937 0.21484375 5.48046875 C-1 3 -1 3 0 0 Z " fill="#092060" transform="translate(579,376)"/>
<path d="M0 0 C4.75481646 0.57634139 7.97048212 2.55068521 12 5 C12 5.66 12 6.32 12 7 C7.39104317 5.68315519 3.85859765 3.84801255 0 1 C0 0.67 0 0.34 0 0 Z " fill="#02304D" transform="translate(627,167)"/>
<path d="M0 0 C4.12838068 0.60711481 7.40422382 1.87522317 11 4 C11.33 4.99 11.66 5.98 12 7 C7.39104317 5.68315519 3.85859765 3.84801255 0 1 C0 0.67 0 0.34 0 0 Z " fill="#022B48" transform="translate(754,240)"/>
<path d="M0 0 C-1.6188996 1.03048037 -3.24532489 2.04914678 -4.875 3.0625 C-5.77992188 3.63097656 -6.68484375 4.19945312 -7.6171875 4.78515625 C-8.40351563 5.18605469 -9.18984375 5.58695313 -10 6 C-10.66 5.67 -11.32 5.34 -12 5 C-8.42937391 1.05351854 -5.33493882 -1.67637143 0 0 Z " fill="#042E4A" transform="translate(416,156)"/>
<path d="M0 0 C0.66 0.33 1.32 0.66 2 1 C-0.37409996 3.62400522 -2.81364829 5.44568209 -6 7 C-8.16015625 6.578125 -8.16015625 6.578125 -10 6 C-8.3811004 4.96951963 -6.75467511 3.95085322 -5.125 2.9375 C-4.22007812 2.36902344 -3.31515625 1.80054688 -2.3828125 1.21484375 C-1.20332031 0.61349609 -1.20332031 0.61349609 0 0 Z " fill="#012C47" transform="translate(749,800)"/>
<path d="M0 0 C-1.6188996 1.03048037 -3.24532489 2.04914678 -4.875 3.0625 C-5.77992188 3.63097656 -6.68484375 4.19945312 -7.6171875 4.78515625 C-8.40351563 5.18605469 -9.18984375 5.58695313 -10 6 C-10.66 5.67 -11.32 5.34 -12 5 C-8.42937391 1.05351854 -5.33493882 -1.67637143 0 0 Z " fill="#022E48" transform="translate(286,231)"/>
<path d="M0 0 C0.66 0.33 1.32 0.66 2 1 C-0.37409996 3.62400522 -2.81364829 5.44568209 -6 7 C-8.16015625 6.578125 -8.16015625 6.578125 -10 6 C-8.3811004 4.96951963 -6.75467511 3.95085322 -5.125 2.9375 C-4.22007812 2.36902344 -3.31515625 1.80054688 -2.3828125 1.21484375 C-1.20332031 0.61349609 -1.20332031 0.61349609 0 0 Z " fill="#022C49" transform="translate(645,860)"/>
<path d="M0 0 C0.66 0.33 1.32 0.66 2 1 C-0.36797991 3.61724095 -2.89600354 5.32861729 -6 7 C-6.66 7 -7.32 7 -8 7 C-6.88424427 3.65273281 -6.48655378 3.37920252 -3.5625 1.75 C-2.386875 1.1725 -1.21125 0.595 0 0 Z " fill="#022E48" transform="translate(761,793)"/>
<path d="M0 0 C-1 3 -1 3 -3.3125 4.75 C-6.32190521 6.14972335 -6.98041673 5.95287489 -10 5 C-8.71186658 4.16121545 -7.41936744 3.32913217 -6.125 2.5 C-5.40570312 2.0359375 -4.68640625 1.571875 -3.9453125 1.09375 C-2 0 -2 0 0 0 Z " fill="#032F4A" transform="translate(817,762)"/>
<path d="M0 0 C2.64 0.33 5.28 0.66 8 1 C7.67 1.99 7.34 2.98 7 4 C4.69 3.67 2.38 3.34 0 3 C0 2.01 0 1.02 0 0 Z " fill="#F3C109" transform="translate(685,705)"/>
<path d="M0 0 C2.70931419 0.15481795 4.46584039 0.48172081 6.4453125 2.40234375 C7.67679642 3.89771708 8.8429837 5.4462924 10 7 C6.433255 7 5.89456323 6.36308045 3.3125 4.0625 C2.68988281 3.51722656 2.06726563 2.97195313 1.42578125 2.41015625 C0.95527344 1.94480469 0.48476563 1.47945313 0 1 C0 0.67 0 0.34 0 0 Z " fill="#032E49" transform="translate(850,295)"/>
<path d="M0 0 C0 0.66 0 1.32 0 2 C-6.45 6.09326923 -6.45 6.09326923 -9.234375 5.62109375 C-9.81703125 5.41613281 -10.3996875 5.21117187 -11 5 C-9.54462432 4.16151196 -8.08559627 3.32936066 -6.625 2.5 C-5.81289063 2.0359375 -5.00078125 1.571875 -4.1640625 1.09375 C-2 0 -2 0 0 0 Z " fill="#032B46" transform="translate(710,824)"/>
<path d="M0 0 C0.66 0.33 1.32 0.66 2 1 C-1.01887244 4.48331435 -3.56909529 5.79157144 -8 7 C-8 6.34 -8 5.68 -8 5 C-6.3203125 3.67578125 -6.3203125 3.67578125 -4.125 2.3125 C-3.40570313 1.85488281 -2.68640625 1.39726562 -1.9453125 0.92578125 C-1.30335938 0.62027344 -0.66140625 0.31476563 0 0 Z " fill="#03324F" transform="translate(195,280)"/>
<path d="M0 0 C-2.97 1.65 -5.94 3.3 -9 5 C-9.66 4.34 -10.32 3.68 -11 3 C-4.5 -1.125 -4.5 -1.125 0 0 Z " fill="#03324F" transform="translate(376,179)"/>
<path d="M0 0 C0.66 0.99 1.32 1.98 2 3 C-1.21341369 4.60670684 -4.62958968 3.82510855 -8.125 3.5625 C-9.25615234 3.48418945 -9.25615234 3.48418945 -10.41015625 3.40429688 C-12.2737937 3.27454996 -14.13694996 3.13792512 -16 3 C-16 2.67 -16 2.34 -16 2 C-10.72 2 -5.44 2 0 2 C0 1.34 0 0.68 0 0 Z " fill="#D6B310" transform="translate(639,613)"/>
<path d="M0 0 C0.8971875 0.309375 0.8971875 0.309375 1.8125 0.625 C0.52725739 1.48880259 -0.76592419 2.34080369 -2.0625 3.1875 C-2.78179687 3.66316406 -3.50109375 4.13882813 -4.2421875 4.62890625 C-4.88414062 4.95761719 -5.52609375 5.28632813 -6.1875 5.625 C-6.8475 5.295 -7.5075 4.965 -8.1875 4.625 C-3.2421875 -0.55580357 -3.2421875 -0.55580357 0 0 Z " fill="#022E49" transform="translate(386.1875,171.375)"/>
<path d="M0 0 C0.66 0.33 1.32 0.66 2 1 C0.06745228 3.0245738 -1.63158688 4.42105792 -4 6 C-6.1875 5.625 -6.1875 5.625 -8 5 C-6.71475739 4.13619741 -5.42157581 3.28419631 -4.125 2.4375 C-3.04605469 1.72400391 -3.04605469 1.72400391 -1.9453125 0.99609375 C-1.30335938 0.66738281 -0.66140625 0.33867188 0 0 Z " fill="#022B46" transform="translate(621,874)"/>
<path d="M0 0 C3.59391114 1.33488128 6.75490696 2.96022723 10 5 C8.3125 5.6875 8.3125 5.6875 6 6 C3.3125 4.75 3.3125 4.75 1 3 C0.67 2.01 0.34 1.02 0 0 Z " fill="#032B46" transform="translate(229,775)"/>
<path d="M0 0 C0.8971875 0.309375 0.8971875 0.309375 1.8125 0.625 C0.52725739 1.48880259 -0.76592419 2.34080369 -2.0625 3.1875 C-2.78179687 3.66316406 -3.50109375 4.13882813 -4.2421875 4.62890625 C-4.88414062 4.95761719 -5.52609375 5.28632813 -6.1875 5.625 C-6.8475 5.295 -7.5075 4.965 -8.1875 4.625 C-3.2421875 -0.55580357 -3.2421875 -0.55580357 0 0 Z " fill="#032D49" transform="translate(322.1875,208.375)"/>
<path d="M0 0 C0.8971875 0.309375 0.8971875 0.309375 1.8125 0.625 C0.52725739 1.48880259 -0.76592419 2.34080369 -2.0625 3.1875 C-2.78179687 3.66316406 -3.50109375 4.13882813 -4.2421875 4.62890625 C-4.88414062 4.95761719 -5.52609375 5.28632813 -6.1875 5.625 C-6.8475 5.295 -7.5075 4.965 -8.1875 4.625 C-3.2421875 -0.55580357 -3.2421875 -0.55580357 0 0 Z " fill="#012D4A" transform="translate(348.1875,193.375)"/>
<path d="M0 0 C0.66 0.33 1.32 0.66 2 1 C0.06745228 3.0245738 -1.63158688 4.42105792 -4 6 C-6.1875 5.625 -6.1875 5.625 -8 5 C-6.71475739 4.13619741 -5.42157581 3.28419631 -4.125 2.4375 C-3.04605469 1.72400391 -3.04605469 1.72400391 -1.9453125 0.99609375 C-1.30335938 0.66738281 -0.66140625 0.33867188 0 0 Z " fill="#022A45" transform="translate(773,786)"/>
<path d="M0 0 C0 0.66 0 1.32 0 2 C-5.2734375 5.22265625 -5.2734375 5.22265625 -7 6 C-7.66 5.67 -8.32 5.34 -9 5 C-4.22727273 0 -4.22727273 0 0 0 Z " fill="#033450" transform="translate(797,774)"/>
<path d="M0 0 C0 0.66 0 1.32 0 2 C-4.15267176 5.11450382 -4.15267176 5.11450382 -7.3125 4.6875 C-7.869375 4.460625 -8.42625 4.23375 -9 4 C-2.25 0 -2.25 0 0 0 Z " fill="#022D49" transform="translate(696,832)"/>
<path d="M0 0 C0.66 0 1.32 0 2 0 C1.25 2.4375 1.25 2.4375 0 5 C-2.125 5.8125 -2.125 5.8125 -4 6 C-1.125 1.125 -1.125 1.125 0 0 Z " fill="#0E275F" transform="translate(756,685)"/>
<path d="M0 0 C2.03833424 1.2739589 4.03852126 2.61061923 6 4 C6 4.66 6 5.32 6 6 C0.25 4.125 0.25 4.125 -2 3 C-2 2.34 -2 1.68 -2 1 C-1.34 0.67 -0.68 0.34 0 0 Z " fill="#03314D" transform="translate(834,283)"/>
<path d="M0 0 C3.73487777 0.4979837 5.81237635 0.87491756 9 3 C9 3.66 9 4.32 9 5 C5.9168649 3.80100302 2.93720508 2.52299523 0 1 C0 0.67 0 0.34 0 0 Z " fill="#022E4B" transform="translate(822,279)"/>
<path d="M0 0 C3.68754757 0.49831724 5.60490662 1.10067643 8 4 C7.01 4.495 7.01 4.495 6 5 C3.96855359 4.06553465 1.96466413 3.06775224 0 2 C0 1.34 0 0.68 0 0 Z " fill="#022D4A" transform="translate(772,250)"/>
<path d="M0 0 C2.25 0.25 2.25 0.25 4 1 C2.02 2.32 0.04 3.64 -2 5 C-2.66 4.67 -3.32 4.34 -4 4 C-2.25 1.9375 -2.25 1.9375 0 0 Z " fill="#022D4A" transform="translate(266,239)"/>
<path d="M0 0 C3.37462715 0.54723683 5.08235 1.0549 8 3 C8 3.66 8 4.32 8 5 C7.236875 4.690625 6.47375 4.38125 5.6875 4.0625 C3.81210323 3.32106407 1.91315348 2.63771783 0 2 C0 1.34 0 0.68 0 0 Z " fill="#012E4B" transform="translate(617,161)"/>
<path d="M0 0 C1.98 0 3.96 0 6 0 C6 0.33 6 0.66 6 1 C4.02 1 2.04 1 0 1 C0 0.67 0 0.34 0 0 Z " fill="#023F61" transform="translate(409,152)"/>
<path d="M0 0 C0.99 0.33 1.98 0.66 3 1 C1.68 1.33 0.36 1.66 -1 2 C-0.67 1.34 -0.34 0.68 0 0 Z " fill="#013F5F" transform="translate(260,240)"/>
<path d="M0 0 C1.485 0.99 1.485 0.99 3 2 C2.01 2 1.02 2 0 2 C0 1.34 0 0.68 0 0 Z " fill="#003F5F" transform="translate(456,910)"/>
<path d="M0 0 C0.99 0.33 1.98 0.66 3 1 C2.01 1 1.02 1 0 1 C0 0.67 0 0.34 0 0 Z " fill="#033F5E" transform="translate(352,850)"/>
<path d="M0 0 C1 4 1 4 1 4 Z " fill="#003F60" transform="translate(144,499)"/>
<path d="M0 0 C1 4 1 4 1 4 Z " fill="#013E60" transform="translate(144,472)"/>
<path d="M0 0 C4 1 4 1 4 1 Z " fill="#034061" transform="translate(297,216)"/>
<path d="M0 0 C0.66 0.66 1.32 1.32 2 2 C1.34 2 0.68 2 0 2 C0 1.34 0 0.68 0 0 Z " fill="#04405F" transform="translate(297,818)"/>
<path d="M0 0 C0.33 0.66 0.66 1.32 1 2 C0.34 1.67 -0.32 1.34 -1 1 C-0.67 0.67 -0.34 0.34 0 0 Z " fill="#044060" transform="translate(273,804)"/>
<path d="" fill="#043F5E" transform="translate(0,0)"/>
<path d="" fill="#034060" transform="translate(0,0)"/>
<path d="" fill="#014161" transform="translate(0,0)"/>
<path d="" fill="#013D5E" transform="translate(0,0)"/>
<path d="" fill="#003D5F" transform="translate(0,0)"/>
<path d="" fill="#003E5F" transform="translate(0,0)"/>
<path d="" fill="#034264" transform="translate(0,0)"/>
<path d="M0 0 C0.66 0 1.32 0 2 0 C1.67 0.66 1.34 1.32 1 2 C0.67 1.34 0.34 0.68 0 0 Z " fill="#063D5C" transform="translate(161,296)"/>
<path d="M0 0 C0.66 0 1.32 0 2 0 C1.67 0.66 1.34 1.32 1 2 C0.67 1.34 0.34 0.68 0 0 Z " fill="#033F5F" transform="translate(240,251)"/>
<path d="M0 0 C3 1 3 1 3 1 Z " fill="#014161" transform="translate(288,224)"/>
<path d="M0 0 C2 1 2 1 2 1 Z " fill="#053F5F" transform="translate(497,931)"/>
<path d="M0 0 C2 1 2 1 2 1 Z " fill="#063C5B" transform="translate(526,930)"/>
<path d="M0 0 C2 1 2 1 2 1 Z " fill="#033F5E" transform="translate(481,925)"/>
<path d="M0 0 C2 1 2 1 2 1 Z " fill="#034060" transform="translate(467,917)"/>
<path d="M0 0 C2 1 2 1 2 1 Z " fill="#023E5F" transform="translate(443,903)"/>
<path d="M0 0 C2 1 2 1 2 1 Z " fill="#033C5D" transform="translate(632,871)"/>
<path d="M0 0 C2 1 2 1 2 1 Z " fill="#013D5F" transform="translate(646,863)"/>
<path d="" fill="#023E5D" transform="translate(0,0)"/>
<path d="M0 0 C2 1 2 1 2 1 Z " fill="#034060" transform="translate(292,815)"/>
<path d="M0 0 C2 1 2 1 2 1 Z " fill="#033F5E" transform="translate(731,814)"/>
<path d="M0 0 C2 1 2 1 2 1 Z " fill="#033F60" transform="translate(277,807)"/>
<path d="M0 0 C2 1 2 1 2 1 Z " fill="#013D5E" transform="translate(256,794)"/>
<path d="M0 0 C2 1 2 1 2 1 Z " fill="#023D5E" transform="translate(237,783)"/>
<path d="M0 0 C2 1 2 1 2 1 Z " fill="#014160" transform="translate(788,781)"/>
<path d="" fill="#043D5C" transform="translate(0,0)"/>
<path d="M0 0 C2 1 2 1 2 1 Z " fill="#063F5E" transform="translate(144,713)"/>
<path d="M0 0 C2 1 2 1 2 1 Z " fill="#054060" transform="translate(146,712)"/>
<path d="" fill="#054261" transform="translate(0,0)"/>
<path d="" fill="#014061" transform="translate(0,0)"/>
<path d="" fill="#003F61" transform="translate(0,0)"/>
<path d="" fill="#003F5F" transform="translate(0,0)"/>
<path d="" fill="#013D5E" transform="translate(0,0)"/>
<path d="" fill="#023E60" transform="translate(0,0)"/>
<path d="" fill="#023F62" transform="translate(0,0)"/>
<path d="" fill="#013F62" transform="translate(0,0)"/>
<path d="" fill="#033F5F" transform="translate(0,0)"/>
<path d="" fill="#024060" transform="translate(0,0)"/>
<path d="" fill="#014060" transform="translate(0,0)"/>
<path d="" fill="#014163" transform="translate(0,0)"/>
<path d="M0 0 C2 1 2 1 2 1 Z " fill="#054160" transform="translate(877,327)"/>
<path d="M0 0 C2 1 2 1 2 1 Z " fill="#05415F" transform="translate(875,320)"/>
<path d="" fill="#043F5E" transform="translate(0,0)"/>
<path d="" fill="#053E5D" transform="translate(0,0)"/>
<path d="M0 0 C2 1 2 1 2 1 Z " fill="#013D5D" transform="translate(844,288)"/>
<path d="" fill="#023F5F" transform="translate(0,0)"/>
<path d="M0 0 C2 1 2 1 2 1 Z " fill="#053F60" transform="translate(187,280)"/>
<path d="M0 0 C2 1 2 1 2 1 Z " fill="#03405E" transform="translate(200,272)"/>
<path d="M0 0 C2 1 2 1 2 1 Z " fill="#063E5F" transform="translate(224,259)"/>
<path d="M0 0 C2 1 2 1 2 1 Z " fill="#02405F" transform="translate(247,248)"/>
<path d="M0 0 C2 1 2 1 2 1 Z " fill="#034061" transform="translate(297,219)"/>
<path d="M0 0 C2 1 2 1 2 1 Z " fill="#033E5E" transform="translate(303,216)"/>
<path d="M0 0 C2 1 2 1 2 1 Z " fill="#033E60" transform="translate(321,200)"/>
<path d="M0 0 C2 1 2 1 2 1 Z " fill="#043B5E" transform="translate(653,179)"/>
<path d="M0 0 C2 1 2 1 2 1 Z " fill="#014160" transform="translate(424,146)"/>
<path d="M0 0 C2 1 2 1 2 1 Z " fill="#013F5F" transform="translate(578,136)"/>
<path d="M0 0 C2 1 2 1 2 1 Z " fill="#014062" transform="translate(565,128)"/>
<path d="M0 0 C2 1 2 1 2 1 Z " fill="#054262" transform="translate(449,128)"/>
<path d="" fill="#043D5B" transform="translate(0,0)"/>
<path d="" fill="#04415E" transform="translate(0,0)"/>
<path d="" fill="#033E5D" transform="translate(0,0)"/>
<path d="" fill="#043D5F" transform="translate(0,0)"/>
<path d="" fill="#063F5E" transform="translate(0,0)"/>
<path d="" fill="#023E5F" transform="translate(0,0)"/>
<path d="" fill="#044060" transform="translate(0,0)"/>
<path d="" fill="#054063" transform="translate(0,0)"/>
<path d="" fill="#043F5F" transform="translate(0,0)"/>
<path d="" fill="#064061" transform="translate(0,0)"/>
<path d="" fill="#033B5E" transform="translate(0,0)"/>
<path d="" fill="#043D5F" transform="translate(0,0)"/>
<path d="" fill="#013C5F" transform="translate(0,0)"/>
<path d="" fill="#043E5E" transform="translate(0,0)"/>
<path d="" fill="#053F60" transform="translate(0,0)"/>
<path d="" fill="#004062" transform="translate(0,0)"/>
<path d="" fill="#053F61" transform="translate(0,0)"/>
<path d="" fill="#063F5F" transform="translate(0,0)"/>
<path d="" fill="#023E60" transform="translate(0,0)"/>
<path d="" fill="#043F62" transform="translate(0,0)"/>
<path d="" fill="#023F5F" transform="translate(0,0)"/>
<path d="" fill="#014162" transform="translate(0,0)"/>
<path d="" fill="#043E5B" transform="translate(0,0)"/>
<path d="" fill="#023F5F" transform="translate(0,0)"/>
<path d="" fill="#013F63" transform="translate(0,0)"/>
<path d="" fill="#063F5F" transform="translate(0,0)"/>
<path d="" fill="#034060" transform="translate(0,0)"/>
<path d="" fill="#04405F" transform="translate(0,0)"/>
<path d="" fill="#034062" transform="translate(0,0)"/>
<path d="" fill="#044161" transform="translate(0,0)"/>
<path d="" fill="#043C5E" transform="translate(0,0)"/>
<path d="" fill="#033F5E" transform="translate(0,0)"/>
<path d="" fill="#043F61" transform="translate(0,0)"/>
<path d="" fill="#023E61" transform="translate(0,0)"/>
<path d="" fill="#024160" transform="translate(0,0)"/>
<path d="" fill="#034060" transform="translate(0,0)"/>
<path d="" fill="#01415F" transform="translate(0,0)"/>
<path d="" fill="#043F5E" transform="translate(0,0)"/>
<path d="" fill="#044063" transform="translate(0,0)"/>
<path d="" fill="#024061" transform="translate(0,0)"/>
<path d="" fill="#023E5E" transform="translate(0,0)"/>
<path d="" fill="#054061" transform="translate(0,0)"/>
<path d="" fill="#033E5F" transform="translate(0,0)"/>
<path d="" fill="#034062" transform="translate(0,0)"/>
<path d="" fill="#054261" transform="translate(0,0)"/>
<path d="" fill="#023D60" transform="translate(0,0)"/>
<path d="" fill="#044064" transform="translate(0,0)"/>
<path d="" fill="#033D5F" transform="translate(0,0)"/>
<path d="" fill="#043F60" transform="translate(0,0)"/>
<path d="" fill="#053E60" transform="translate(0,0)"/>
<path d="" fill="#023F60" transform="translate(0,0)"/>
<path d="" fill="#043F60" transform="translate(0,0)"/>
<path d="" fill="#043C5A" transform="translate(0,0)"/>
<path d="" fill="#023E5F" transform="translate(0,0)"/>
<path d="" fill="#04405E" transform="translate(0,0)"/>
<path d="" fill="#024162" transform="translate(0,0)"/>
<path d="" fill="#043F60" transform="translate(0,0)"/>
<path d="" fill="#034062" transform="translate(0,0)"/>
<path d="" fill="#043B5B" transform="translate(0,0)"/>
<path d="" fill="#03405F" transform="translate(0,0)"/>
<path d="" fill="#043E5C" transform="translate(0,0)"/>
<path d="" fill="#023F5F" transform="translate(0,0)"/>
<path d="" fill="#043F5C" transform="translate(0,0)"/>
<path d="" fill="#043B5A" transform="translate(0,0)"/>
<path d="" fill="#03405E" transform="translate(0,0)"/>
<path d="" fill="#044161" transform="translate(0,0)"/>
<path d="" fill="#013B5C" transform="translate(0,0)"/>
<path d="" fill="#013F5F" transform="translate(0,0)"/>
<path d="" fill="#04425F" transform="translate(0,0)"/>
<path d="" fill="#023F5E" transform="translate(0,0)"/>
<path d="" fill="#024161" transform="translate(0,0)"/>
<path d="" fill="#033E5F" transform="translate(0,0)"/>
<path d="" fill="#063F5E" transform="translate(0,0)"/>
<path d="" fill="#023F5D" transform="translate(0,0)"/>
<path d="" fill="#054160" transform="translate(0,0)"/>
<path d="" fill="#013C5D" transform="translate(0,0)"/>
<path d="" fill="#043B5E" transform="translate(0,0)"/>
<path d="" fill="#063F5C" transform="translate(0,0)"/>
<path d="" fill="#053E5E" transform="translate(0,0)"/>
<path d="" fill="#053E5E" transform="translate(0,0)"/>
<path d="" fill="#033E5D" transform="translate(0,0)"/>
<path d="" fill="#053C5C" transform="translate(0,0)"/>
<path d="" fill="#054061" transform="translate(0,0)"/>
<path d="" fill="#043C5C" transform="translate(0,0)"/>
<path d="" fill="#023F5C" transform="translate(0,0)"/>
<path d="" fill="#033D5C" transform="translate(0,0)"/>
<path d="" fill="#043A5C" transform="translate(0,0)"/>
<path d="" fill="#053E5F" transform="translate(0,0)"/>
<path d="" fill="#053F5D" transform="translate(0,0)"/>
<path d="" fill="#054260" transform="translate(0,0)"/>
<path d="" fill="#073F5C" transform="translate(0,0)"/>
<path d="" fill="#053F5E" transform="translate(0,0)"/>
<path d="" fill="#063F5F" transform="translate(0,0)"/>
<path d="" fill="#044362" transform="translate(0,0)"/>
<path d="" fill="#043E5E" transform="translate(0,0)"/>
<path d="" fill="#03425F" transform="translate(0,0)"/>
<path d="" fill="#014161" transform="translate(0,0)"/>
<path d="" fill="#023F5F" transform="translate(0,0)"/>
<path d="" fill="#033F60" transform="translate(0,0)"/>
<path d="" fill="#013E5F" transform="translate(0,0)"/>
<path d="" fill="#003E5F" transform="translate(0,0)"/>
<path d="" fill="#013F63" transform="translate(0,0)"/>
<path d="" fill="#024162" transform="translate(0,0)"/>
<path d="" fill="#013F61" transform="translate(0,0)"/>
<path d="" fill="#024063" transform="translate(0,0)"/>
<path d="" fill="#003E5E" transform="translate(0,0)"/>
<path d="" fill="#014163" transform="translate(0,0)"/>
<path d="" fill="#03405F" transform="translate(0,0)"/>
<path d="" fill="#014063" transform="translate(0,0)"/>
<path d="" fill="#033F5E" transform="translate(0,0)"/>
<path d="" fill="#003D61" transform="translate(0,0)"/>
<path d="" fill="#013D60" transform="translate(0,0)"/>
<path d="" fill="#023E60" transform="translate(0,0)"/>
<path d="" fill="#003E61" transform="translate(0,0)"/>
<path d="" fill="#003D61" transform="translate(0,0)"/>
<path d="" fill="#014163" transform="translate(0,0)"/>
<path d="" fill="#013D60" transform="translate(0,0)"/>
<path d="" fill="#043F61" transform="translate(0,0)"/>
<path d="" fill="#003E60" transform="translate(0,0)"/>
<path d="" fill="#033F60" transform="translate(0,0)"/>
<path d="" fill="#024164" transform="translate(0,0)"/>
<path d="" fill="#01415E" transform="translate(0,0)"/>
<path d="" fill="#044161" transform="translate(0,0)"/>
<path d="" fill="#064061" transform="translate(0,0)"/>
<path d="" fill="#063F5D" transform="translate(0,0)"/>
<path d="" fill="#07405F" transform="translate(0,0)"/>
<path d="" fill="#023E5D" transform="translate(0,0)"/>
<path d="" fill="#024161" transform="translate(0,0)"/>
<path d="" fill="#063D5C" transform="translate(0,0)"/>
<path d="" fill="#07415F" transform="translate(0,0)"/>
<path d="" fill="#073E5D" transform="translate(0,0)"/>
<path d="" fill="#063D5C" transform="translate(0,0)"/>
<path d="" fill="#044160" transform="translate(0,0)"/>
<path d="" fill="#074060" transform="translate(0,0)"/>
<path d="" fill="#083F5F" transform="translate(0,0)"/>
<path d="" fill="#05405E" transform="translate(0,0)"/>
<path d="" fill="#073D5C" transform="translate(0,0)"/>
<path d="" fill="#053F5C" transform="translate(0,0)"/>
<path d="" fill="#033E5B" transform="translate(0,0)"/>
<path d="" fill="#043F5D" transform="translate(0,0)"/>
<path d="" fill="#054160" transform="translate(0,0)"/>
<path d="" fill="#03425F" transform="translate(0,0)"/>
<path d="" fill="#033C5D" transform="translate(0,0)"/>
<path d="" fill="#07405F" transform="translate(0,0)"/>
<path d="" fill="#034060" transform="translate(0,0)"/>
<path d="" fill="#033E5F" transform="translate(0,0)"/>
<path d="" fill="#033F60" transform="translate(0,0)"/>
<path d="" fill="#034160" transform="translate(0,0)"/>
<path d="" fill="#013E61" transform="translate(0,0)"/>
<path d="" fill="#023D5E" transform="translate(0,0)"/>
<path d="" fill="#004061" transform="translate(0,0)"/>
<path d="" fill="#023E60" transform="translate(0,0)"/>
<path d="" fill="#05405F" transform="translate(0,0)"/>
<path d="" fill="#01405F" transform="translate(0,0)"/>
<path d="" fill="#013F60" transform="translate(0,0)"/>
<path d="" fill="#043F5F" transform="translate(0,0)"/>
<path d="" fill="#033E61" transform="translate(0,0)"/>
<path d="" fill="#014061" transform="translate(0,0)"/>
<path d="" fill="#044161" transform="translate(0,0)"/>
<path d="" fill="#033E60" transform="translate(0,0)"/>
<path d="" fill="#044060" transform="translate(0,0)"/>
<path d="" fill="#023F60" transform="translate(0,0)"/>
<path d="" fill="#063F5F" transform="translate(0,0)"/>
<path d="" fill="#024061" transform="translate(0,0)"/>
<path d="" fill="#05415F" transform="translate(0,0)"/>
<path d="" fill="#013C5E" transform="translate(0,0)"/>
<path d="" fill="#03405E" transform="translate(0,0)"/>
<path d="" fill="#043F60" transform="translate(0,0)"/>
<path d="" fill="#033D5D" transform="translate(0,0)"/>
<path d="" fill="#003C60" transform="translate(0,0)"/>
<path d="" fill="#024261" transform="translate(0,0)"/>
<path d="" fill="#023F60" transform="translate(0,0)"/>
<path d="" fill="#003E5E" transform="translate(0,0)"/>
<path d="" fill="#023F5D" transform="translate(0,0)"/>
<path d="" fill="#013F60" transform="translate(0,0)"/>
<path d="" fill="#04405F" transform="translate(0,0)"/>
<path d="" fill="#043F60" transform="translate(0,0)"/>
<path d="" fill="#024061" transform="translate(0,0)"/>
<path d="" fill="#034160" transform="translate(0,0)"/>
<path d="" fill="#034060" transform="translate(0,0)"/>
<path d="" fill="#013F5E" transform="translate(0,0)"/>
<path d="" fill="#023D5F" transform="translate(0,0)"/>
<path d="" fill="#023E60" transform="translate(0,0)"/>
<path d="" fill="#003D60" transform="translate(0,0)"/>
<path d="" fill="#003F60" transform="translate(0,0)"/>
<path d="" fill="#014060" transform="translate(0,0)"/>
<path d="" fill="#034463" transform="translate(0,0)"/>
<path d="" fill="#013F61" transform="translate(0,0)"/>
<path d="" fill="#003C5E" transform="translate(0,0)"/>
<path d="" fill="#023C5E" transform="translate(0,0)"/>
<path d="" fill="#003E60" transform="translate(0,0)"/>
<path d="" fill="#074062" transform="translate(0,0)"/>
<path d="" fill="#024061" transform="translate(0,0)"/>
<path d="" fill="#023E5F" transform="translate(0,0)"/>
<path d="" fill="#014162" transform="translate(0,0)"/>
<path d="" fill="#03415F" transform="translate(0,0)"/>
<path d="" fill="#053E5E" transform="translate(0,0)"/>
<path d="" fill="#043F5F" transform="translate(0,0)"/>
<path d="" fill="#023E61" transform="translate(0,0)"/>
<path d="" fill="#024162" transform="translate(0,0)"/>
<path d="" fill="#04415E" transform="translate(0,0)"/>
<path d="" fill="#054160" transform="translate(0,0)"/>
<path d="" fill="#033F5F" transform="translate(0,0)"/>
<path d="" fill="#064161" transform="translate(0,0)"/>
<path d="" fill="#044161" transform="translate(0,0)"/>
<path d="" fill="#05415E" transform="translate(0,0)"/>
<path d="" fill="#024161" transform="translate(0,0)"/>
<path d="" fill="#07435F" transform="translate(0,0)"/>
<path d="" fill="#074161" transform="translate(0,0)"/>
</svg>
